# xmcd
#
# Track frame offsets:
#	150
#	15583
#	33289
#	51295
#	67839
#	86468
#	103114
#	123856
#	139326
#	157237
#	173940
#	188875
#	206753
#
# Disc length: 3027 seconds
#
# Revision: 1
# Processed by: cddbd v1.5.2PL0 Copyright (c) Steve Scherf et al.
# Submitted via: EasyCDDAExtractor 6.5.0.1
#
DISCID=b20bd10d
DTITLE=матаса хеодыяидоу - матаса
DYEAR=2007
DGENRE=European World
TTITLE0=паки
TTITLE1=дем хекы типота
TTITLE2=ма л'ацапас
TTITLE3=ма текеиымоуле еды
TTITLE4=хаула
TTITLE5=йакгмувта с'ацапаы
TTITLE6=оуте лиа кенг
TTITLE7=йака поу ежуцес
TTITLE8=амоине лоу тгм йаядиа соу
TTITLE9=ока та сбгса
TTITLE10=ацапг поу сйотымеи
TTITLE11=сам лиа таимиа
TTITLE12=немгтиа лоу
EXTD=
EXTT0=
EXTT1=
EXTT2=
EXTT3=
EXTT4=
EXTT5=
EXTT6=
EXTT7=
EXTT8=
EXTT9=
EXTT10=
EXTT11=
EXTT12=
PLAYORDER=
